<svg xmlns="http://www.w3.org/2000/svg" xmlns:xlink="http://www.w3.org/1999/xlink" version="1.1" id="user-Layer_1" x="0px" y="0px" viewBox="215 11 537 538" enable-background="new 215 11 537 538" xml:space="preserve" width="32" height="32"><g>	<g>		<g>			<circle id="user-SVGID_5_" fill="#DBDBDB" cx="483.8" cy="280" r="267.3"/>		</g>		<g>			<defs>				<circle id="user-SVGID_1_" cx="483.8" cy="280" r="267.3"/>			</defs>			<clipPath id="user-SVGID_2_">				<use xlink:href="#user-SVGID_1_" overflow="visible"/>			</clipPath>			<path clip-path="url(#user-SVGID_2_)" fill="#A6A69F" d="M555.1,348.7v38.2c7.6,2.5,15.3,7.6,25.5,10.2c10.2,5.1,17.8,7.6,28,12.7     c10.2,5.1,20.4,7.6,30.5,12.7c10.2,5.1,20.4,7.6,28,12.7c10.2,2.5,17.8,7.6,22.9,10.2c7.6,2.5,12.7,5.1,17.8,7.6     c10.2,2.5,17.8,7.6,22.9,15.3c5.1,7.6,10.2,12.7,12.7,20.4c5.1,7.6,7.6,17.8,7.6,25.5v43.3H231.8v-43.3     c2.5-10.2,5.1-17.8,10.2-25.5c2.5-7.6,7.6-12.7,12.7-20.4c5.1-7.6,12.7-12.7,22.9-15.3c5.1-2.5,10.2-5.1,17.8-7.6     c7.6-2.5,15.3-7.6,25.5-10.2c10.2-5.1,20.4-7.6,30.5-12.7c10.2-5.1,20.4-10.2,30.5-12.7c10.2-5.1,20.4-7.6,28-12.7     c10.2-5.1,17.8-7.6,22.9-10.2v-38.2c0-2.5,0-5.1-2.5-7.6c0-2.5-2.5-7.6-2.5-10.2c-2.5-5.1-2.5-10.2-5.1-15.3     c-7.6-12.7-12.7-25.5-15.3-40.7s-5.1-30.5-5.1-48.4c0-22.9,2.5-40.7,7.6-56c5.1-20.4,12.7-33.1,20.4-43.3s17.8-17.8,28-20.4     c12.7-5.1,25.5-7.6,38.2-7.6c12.7,0,25.5,2.5,35.6,7.6c10.2,5.1,20.4,10.2,28,20.4c7.6,10.2,15.3,22.9,20.4,38.2     c5.1,15.3,7.6,35.6,7.6,58.5c0,17.8-2.5,33.1-5.1,48.4s-7.6,28-15.3,40.7c-2.5,5.1-2.5,10.2-5.1,15.3c-2.5,5.1-2.5,7.6-2.5,12.7     C557.6,343.6,555.1,346.2,555.1,348.7z"/>		</g>	</g></g></svg>